<mxfile host="app.diagrams.net" modified="2023-02-25T21:27:20.683Z" agent="5.0 (Windows)" etag="6ea97zu_uJRzsVxLD4sc" version="20.8.23" type="github">
  <diagram name="Page-1" id="5f0bae14-7c28-e335-631c-24af17079c00">
    <mxGraphModel dx="1232" dy="1153" grid="1" gridSize="10" guides="1" tooltips="1" connect="1" arrows="1" fold="1" page="1" pageScale="1" pageWidth="1100" pageHeight="850" background="none" math="0" shadow="0">
      <root>
        <mxCell id="0" />
        <mxCell id="1" parent="0" />
        <mxCell id="vFjxq-ZZOYanFInPDwxO-5" style="rounded=0;orthogonalLoop=1;jettySize=auto;html=1;exitX=1;exitY=0.5;exitDx=0;exitDy=0;edgeStyle=orthogonalEdgeStyle;curved=1;entryX=1;entryY=0;entryDx=0;entryDy=0;" parent="1" source="vFjxq-ZZOYanFInPDwxO-2" target="vFjxq-ZZOYanFInPDwxO-6" edge="1">
          <mxGeometry relative="1" as="geometry">
            <mxPoint x="440" y="85" as="targetPoint" />
          </mxGeometry>
        </mxCell>
        <mxCell id="vFjxq-ZZOYanFInPDwxO-1" value="Sign-up" style="swimlane;fontStyle=0;childLayout=stackLayout;horizontal=1;startSize=30;horizontalStack=0;resizeParent=1;resizeParentMax=0;resizeLast=0;collapsible=1;marginBottom=0;whiteSpace=wrap;html=1;fillColor=#dae8fc;strokeColor=#6c8ebf;" parent="1" vertex="1">
          <mxGeometry x="240" y="40" width="160" height="120" as="geometry" />
        </mxCell>
        <mxCell id="vFjxq-ZZOYanFInPDwxO-2" value="&lt;div&gt;Guest&lt;/div&gt;" style="text;strokeColor=default;fillColor=none;align=left;verticalAlign=middle;spacingLeft=4;spacingRight=4;overflow=hidden;points=[[0,0.5],[1,0.5]];portConstraint=eastwest;rotatable=0;whiteSpace=wrap;html=1;spacingBottom=0;dashed=1;" parent="vFjxq-ZZOYanFInPDwxO-1" vertex="1">
          <mxGeometry y="30" width="160" height="30" as="geometry" />
        </mxCell>
        <mxCell id="vFjxq-ZZOYanFInPDwxO-3" value="With email address" style="text;strokeColor=default;fillColor=none;align=left;verticalAlign=middle;spacingLeft=4;spacingRight=4;overflow=hidden;points=[[0,0.5],[1,0.5]];portConstraint=eastwest;rotatable=0;whiteSpace=wrap;html=1;spacingBottom=0;dashed=1;" parent="vFjxq-ZZOYanFInPDwxO-1" vertex="1">
          <mxGeometry y="60" width="160" height="30" as="geometry" />
        </mxCell>
        <mxCell id="vFjxq-ZZOYanFInPDwxO-19" value="With phone number" style="text;strokeColor=default;fillColor=none;align=left;verticalAlign=middle;spacingLeft=4;spacingRight=4;overflow=hidden;points=[[0,0.5],[1,0.5]];portConstraint=eastwest;rotatable=0;whiteSpace=wrap;html=1;spacingBottom=0;dashed=1;" parent="vFjxq-ZZOYanFInPDwxO-1" vertex="1">
          <mxGeometry y="90" width="160" height="30" as="geometry" />
        </mxCell>
        <mxCell id="vFjxq-ZZOYanFInPDwxO-6" value="&lt;div&gt;Sign-up form&lt;/div&gt;&lt;div&gt;(unique instance)&lt;br&gt;&lt;/div&gt;" style="swimlane;fontStyle=0;childLayout=stackLayout;horizontal=1;startSize=30;horizontalStack=0;resizeParent=1;resizeParentMax=0;resizeLast=0;collapsible=1;marginBottom=0;whiteSpace=wrap;html=1;fillColor=#dae8fc;strokeColor=#6c8ebf;" parent="1" vertex="1">
          <mxGeometry x="560" y="250" width="160" height="270" as="geometry">
            <mxRectangle x="560" y="250" width="140" height="40" as="alternateBounds" />
          </mxGeometry>
        </mxCell>
        <mxCell id="vFjxq-ZZOYanFInPDwxO-7" value="Show FolkkÃ¶k info" style="text;strokeColor=default;fillColor=none;align=left;verticalAlign=middle;spacingLeft=4;spacingRight=4;overflow=hidden;points=[[0,0.5],[1,0.5]];portConstraint=eastwest;rotatable=0;whiteSpace=wrap;html=1;spacingBottom=0;dashed=1;" parent="vFjxq-ZZOYanFInPDwxO-6" vertex="1">
          <mxGeometry y="30" width="160" height="30" as="geometry" />
        </mxCell>
        <mxCell id="vFjxq-ZZOYanFInPDwxO-33" value="Personal info?" style="text;strokeColor=default;fillColor=none;align=left;verticalAlign=middle;spacingLeft=4;spacingRight=4;overflow=hidden;points=[[0,0.5],[1,0.5]];portConstraint=eastwest;rotatable=0;whiteSpace=wrap;html=1;spacingBottom=0;dashed=1;" parent="vFjxq-ZZOYanFInPDwxO-6" vertex="1">
          <mxGeometry y="60" width="160" height="30" as="geometry" />
        </mxCell>
        <mxCell id="vFjxq-ZZOYanFInPDwxO-8" value="When can you come?" style="text;strokeColor=default;fillColor=none;align=left;verticalAlign=middle;spacingLeft=4;spacingRight=4;overflow=hidden;points=[[0,0.5],[1,0.5]];portConstraint=eastwest;rotatable=0;whiteSpace=wrap;html=1;spacingBottom=0;dashed=1;" parent="vFjxq-ZZOYanFInPDwxO-6" vertex="1">
          <mxGeometry y="90" width="160" height="30" as="geometry" />
        </mxCell>
        <mxCell id="vFjxq-ZZOYanFInPDwxO-9" value="Accommodations needed?" style="text;strokeColor=default;fillColor=none;align=left;verticalAlign=middle;spacingLeft=4;spacingRight=4;overflow=hidden;points=[[0,0.5],[1,0.5]];portConstraint=eastwest;rotatable=0;whiteSpace=wrap;html=1;spacingBottom=0;dashed=1;" parent="vFjxq-ZZOYanFInPDwxO-6" vertex="1">
          <mxGeometry y="120" width="160" height="30" as="geometry" />
        </mxCell>
        <mxCell id="vFjxq-ZZOYanFInPDwxO-27" value="Other stuff??" style="text;strokeColor=default;fillColor=none;align=left;verticalAlign=middle;spacingLeft=4;spacingRight=4;overflow=hidden;points=[[0,0.5],[1,0.5]];portConstraint=eastwest;rotatable=0;whiteSpace=wrap;html=1;spacingBottom=0;dashed=1;" parent="vFjxq-ZZOYanFInPDwxO-6" vertex="1">
          <mxGeometry y="150" width="160" height="30" as="geometry" />
        </mxCell>
        <mxCell id="vFjxq-ZZOYanFInPDwxO-32" value="Show link and whether it has been sent to email (or phone)" style="text;strokeColor=default;fillColor=none;align=left;verticalAlign=middle;spacingLeft=4;spacingRight=4;overflow=hidden;points=[[0,0.5],[1,0.5]];portConstraint=eastwest;rotatable=0;whiteSpace=wrap;html=1;spacingBottom=0;dashed=1;" parent="vFjxq-ZZOYanFInPDwxO-6" vertex="1">
          <mxGeometry y="180" width="160" height="90" as="geometry" />
        </mxCell>
        <mxCell id="vFjxq-ZZOYanFInPDwxO-30" style="edgeStyle=orthogonalEdgeStyle;curved=1;rounded=0;orthogonalLoop=1;jettySize=auto;html=1;exitX=0.25;exitY=1;exitDx=0;exitDy=0;entryX=0.25;entryY=0;entryDx=0;entryDy=0;fontFamily=Helvetica;fontSize=12;fontColor=#FF0000;" parent="1" source="vFjxq-ZZOYanFInPDwxO-14" target="vFjxq-ZZOYanFInPDwxO-25" edge="1">
          <mxGeometry relative="1" as="geometry" />
        </mxCell>
        <mxCell id="vFjxq-ZZOYanFInPDwxO-31" style="edgeStyle=orthogonalEdgeStyle;curved=1;rounded=0;orthogonalLoop=1;jettySize=auto;html=1;entryX=0.25;entryY=0;entryDx=0;entryDy=0;fontFamily=Helvetica;fontSize=12;fontColor=#FF0000;exitX=0.5;exitY=1;exitDx=0;exitDy=0;" parent="1" source="vFjxq-ZZOYanFInPDwxO-14" target="vFjxq-ZZOYanFInPDwxO-20" edge="1">
          <mxGeometry relative="1" as="geometry">
            <mxPoint x="160" y="300" as="sourcePoint" />
          </mxGeometry>
        </mxCell>
        <mxCell id="vFjxq-ZZOYanFInPDwxO-34" style="edgeStyle=orthogonalEdgeStyle;curved=1;rounded=0;orthogonalLoop=1;jettySize=auto;html=1;exitX=0.75;exitY=1;exitDx=0;exitDy=0;fontFamily=Helvetica;fontSize=12;fontColor=#FF0000;entryX=0;entryY=0;entryDx=0;entryDy=0;" parent="1" source="vFjxq-ZZOYanFInPDwxO-14" target="vFjxq-ZZOYanFInPDwxO-6" edge="1">
          <mxGeometry relative="1" as="geometry">
            <mxPoint x="600" y="220" as="targetPoint" />
          </mxGeometry>
        </mxCell>
        <mxCell id="vFjxq-ZZOYanFInPDwxO-14" value="Form instance link" style="swimlane;fontStyle=0;childLayout=stackLayout;horizontal=1;startSize=30;horizontalStack=0;resizeParent=1;resizeParentMax=0;resizeLast=0;collapsible=1;marginBottom=0;whiteSpace=wrap;html=1;spacingBottom=0;fillColor=#ffe6cc;strokeColor=#d79b00;" parent="1" vertex="1">
          <mxGeometry x="40" y="40" width="160" height="90" as="geometry" />
        </mxCell>
        <mxCell id="vFjxq-ZZOYanFInPDwxO-15" value="Generate unique secret link" style="text;strokeColor=default;fillColor=none;align=left;verticalAlign=middle;spacingLeft=4;spacingRight=4;overflow=hidden;points=[[0,0.5],[1,0.5]];portConstraint=eastwest;rotatable=0;whiteSpace=wrap;html=1;spacingBottom=0;dashed=1;perimeterSpacing=1;" parent="vFjxq-ZZOYanFInPDwxO-14" vertex="1">
          <mxGeometry y="30" width="160" height="60" as="geometry" />
        </mxCell>
        <mxCell id="vFjxq-ZZOYanFInPDwxO-20" value="Send link to email" style="swimlane;fontStyle=0;childLayout=stackLayout;horizontal=1;startSize=30;horizontalStack=0;resizeParent=1;resizeParentMax=0;resizeLast=0;collapsible=1;marginBottom=0;whiteSpace=wrap;html=1;spacingBottom=0;fillColor=#ffe6cc;strokeColor=#d79b00;" parent="1" vertex="1">
          <mxGeometry x="360" y="560" width="160" height="70" as="geometry" />
        </mxCell>
        <mxCell id="vFjxq-ZZOYanFInPDwxO-22" value="Send message with link to email address" style="text;strokeColor=default;fillColor=none;align=left;verticalAlign=middle;spacingLeft=4;spacingRight=4;overflow=hidden;points=[[0,0.5],[1,0.5]];portConstraint=eastwest;rotatable=0;whiteSpace=wrap;html=1;spacingBottom=0;dashed=1;" parent="vFjxq-ZZOYanFInPDwxO-20" vertex="1">
          <mxGeometry y="30" width="160" height="40" as="geometry" />
        </mxCell>
        <mxCell id="vFjxq-ZZOYanFInPDwxO-25" value="Send link to sms" style="swimlane;fontStyle=0;childLayout=stackLayout;horizontal=1;startSize=30;horizontalStack=0;resizeParent=1;resizeParentMax=0;resizeLast=0;collapsible=1;marginBottom=0;whiteSpace=wrap;html=1;spacingBottom=0;fillColor=#ffe6cc;strokeColor=#d79b00;" parent="1" vertex="1">
          <mxGeometry x="120" y="560" width="160" height="120" as="geometry" />
        </mxCell>
        <mxCell id="vFjxq-ZZOYanFInPDwxO-26" value="Send message with link to phone number" style="text;strokeColor=default;fillColor=none;align=left;verticalAlign=middle;spacingLeft=4;spacingRight=4;overflow=hidden;points=[[0,0.5],[1,0.5]];portConstraint=eastwest;rotatable=0;whiteSpace=wrap;html=1;spacingBottom=0;dashed=1;" parent="vFjxq-ZZOYanFInPDwxO-25" vertex="1">
          <mxGeometry y="30" width="160" height="60" as="geometry" />
        </mxCell>
        <mxCell id="vFjxq-ZZOYanFInPDwxO-29" value="&lt;font color=&quot;#FF0000&quot;&gt;Is this practical?&lt;br&gt;&lt;/font&gt;" style="text;strokeColor=default;fillColor=none;align=left;verticalAlign=middle;spacingLeft=4;spacingRight=4;overflow=hidden;points=[[0,0.5],[1,0.5]];portConstraint=eastwest;rotatable=0;whiteSpace=wrap;html=1;spacingBottom=0;dashed=1;" parent="vFjxq-ZZOYanFInPDwxO-25" vertex="1">
          <mxGeometry y="90" width="160" height="30" as="geometry" />
        </mxCell>
        <mxCell id="vFjxq-ZZOYanFInPDwxO-35" style="edgeStyle=orthogonalEdgeStyle;curved=1;rounded=0;orthogonalLoop=1;jettySize=auto;html=1;exitX=1;exitY=0.5;exitDx=0;exitDy=0;entryX=0.75;entryY=0;entryDx=0;entryDy=0;fontFamily=Helvetica;fontSize=12;fontColor=#FF0000;" parent="1" source="vFjxq-ZZOYanFInPDwxO-3" target="vFjxq-ZZOYanFInPDwxO-6" edge="1">
          <mxGeometry relative="1" as="geometry" />
        </mxCell>
        <mxCell id="vFjxq-ZZOYanFInPDwxO-36" style="edgeStyle=orthogonalEdgeStyle;curved=1;rounded=0;orthogonalLoop=1;jettySize=auto;html=1;exitX=1;exitY=0.5;exitDx=0;exitDy=0;entryX=0.5;entryY=0;entryDx=0;entryDy=0;fontFamily=Helvetica;fontSize=12;fontColor=#FF0000;" parent="1" source="vFjxq-ZZOYanFInPDwxO-19" target="vFjxq-ZZOYanFInPDwxO-6" edge="1">
          <mxGeometry relative="1" as="geometry" />
        </mxCell>
        <mxCell id="vFjxq-ZZOYanFInPDwxO-38" style="edgeStyle=orthogonalEdgeStyle;curved=1;rounded=0;orthogonalLoop=1;jettySize=auto;html=1;exitX=1;exitY=0.5;exitDx=0;exitDy=0;entryX=0.75;entryY=0;entryDx=0;entryDy=0;fontFamily=Helvetica;fontSize=12;fontColor=#FF0000;dashed=1;" parent="1" source="vFjxq-ZZOYanFInPDwxO-3" target="vFjxq-ZZOYanFInPDwxO-20" edge="1">
          <mxGeometry relative="1" as="geometry" />
        </mxCell>
        <mxCell id="vFjxq-ZZOYanFInPDwxO-39" style="edgeStyle=orthogonalEdgeStyle;curved=1;rounded=0;orthogonalLoop=1;jettySize=auto;html=1;exitX=1;exitY=0.5;exitDx=0;exitDy=0;entryX=0.75;entryY=0;entryDx=0;entryDy=0;dashed=1;fontFamily=Helvetica;fontSize=12;fontColor=#FF0000;" parent="1" source="vFjxq-ZZOYanFInPDwxO-19" target="vFjxq-ZZOYanFInPDwxO-25" edge="1">
          <mxGeometry relative="1" as="geometry" />
        </mxCell>
        <mxCell id="vFjxq-ZZOYanFInPDwxO-41" value="&lt;font color=&quot;#000000&quot;&gt;Statistics&lt;/font&gt;" style="swimlane;fontStyle=0;childLayout=stackLayout;horizontal=1;startSize=30;horizontalStack=0;resizeParent=1;resizeParentMax=0;resizeLast=0;collapsible=1;marginBottom=0;whiteSpace=wrap;html=1;strokeColor=#d79b00;fontFamily=Helvetica;fontSize=12;fillColor=#ffe6cc;" parent="1" vertex="1">
          <mxGeometry x="760" y="560" width="140" height="150" as="geometry" />
        </mxCell>
        <mxCell id="vFjxq-ZZOYanFInPDwxO-42" value="&lt;font color=&quot;#000000&quot;&gt;Compile instances&lt;br&gt;&lt;/font&gt;" style="text;strokeColor=default;fillColor=none;align=left;verticalAlign=middle;spacingLeft=4;spacingRight=4;overflow=hidden;points=[[0,0.5],[1,0.5]];portConstraint=eastwest;rotatable=0;whiteSpace=wrap;html=1;fontSize=12;fontFamily=Helvetica;fontColor=#FF0000;dashed=1;" parent="vFjxq-ZZOYanFInPDwxO-41" vertex="1">
          <mxGeometry y="30" width="140" height="30" as="geometry" />
        </mxCell>
        <mxCell id="vFjxq-ZZOYanFInPDwxO-43" value="&lt;font color=&quot;#000000&quot;&gt;Generate realtime graphics&lt;br&gt;&lt;/font&gt;" style="text;strokeColor=default;fillColor=none;align=left;verticalAlign=middle;spacingLeft=4;spacingRight=4;overflow=hidden;points=[[0,0.5],[1,0.5]];portConstraint=eastwest;rotatable=0;whiteSpace=wrap;html=1;fontSize=12;fontFamily=Helvetica;fontColor=#FF0000;dashed=1;" parent="vFjxq-ZZOYanFInPDwxO-41" vertex="1">
          <mxGeometry y="60" width="140" height="60" as="geometry" />
        </mxCell>
        <mxCell id="vFjxq-ZZOYanFInPDwxO-44" value="&lt;font color=&quot;#000000&quot;&gt;Make embeddable&lt;br&gt;&lt;/font&gt;" style="text;strokeColor=default;fillColor=none;align=left;verticalAlign=middle;spacingLeft=4;spacingRight=4;overflow=hidden;points=[[0,0.5],[1,0.5]];portConstraint=eastwest;rotatable=0;whiteSpace=wrap;html=1;fontSize=12;fontFamily=Helvetica;fontColor=#FF0000;dashed=1;" parent="vFjxq-ZZOYanFInPDwxO-41" vertex="1">
          <mxGeometry y="120" width="140" height="30" as="geometry" />
        </mxCell>
        <mxCell id="vFjxq-ZZOYanFInPDwxO-50" style="edgeStyle=orthogonalEdgeStyle;curved=1;rounded=0;orthogonalLoop=1;jettySize=auto;html=1;exitX=0.5;exitY=1;exitDx=0;exitDy=0;fontFamily=Helvetica;fontSize=12;fontColor=#000000;" parent="1" source="vFjxq-ZZOYanFInPDwxO-45" target="vFjxq-ZZOYanFInPDwxO-41" edge="1">
          <mxGeometry relative="1" as="geometry" />
        </mxCell>
        <mxCell id="vFjxq-ZZOYanFInPDwxO-45" value="&lt;div&gt;&lt;font color=&quot;#000000&quot;&gt;Statistics&lt;/font&gt;&lt;/div&gt;&lt;font color=&quot;#000000&quot;&gt;(unique instance)&lt;/font&gt;" style="swimlane;fontStyle=0;childLayout=stackLayout;horizontal=1;startSize=30;horizontalStack=0;resizeParent=1;resizeParentMax=0;resizeLast=0;collapsible=1;marginBottom=0;whiteSpace=wrap;html=1;strokeColor=#d79b00;fontFamily=Helvetica;fontSize=12;fillColor=#ffe6cc;" parent="1" vertex="1">
          <mxGeometry x="760" y="410" width="140" height="90" as="geometry" />
        </mxCell>
        <mxCell id="vFjxq-ZZOYanFInPDwxO-46" value="&lt;font color=&quot;#000000&quot;&gt;Anonymize&lt;br&gt;&lt;/font&gt;" style="text;strokeColor=default;fillColor=none;align=left;verticalAlign=middle;spacingLeft=4;spacingRight=4;overflow=hidden;points=[[0,0.5],[1,0.5]];portConstraint=eastwest;rotatable=0;whiteSpace=wrap;html=1;fontSize=12;fontFamily=Helvetica;fontColor=#FF0000;dashed=1;" parent="vFjxq-ZZOYanFInPDwxO-45" vertex="1">
          <mxGeometry y="30" width="140" height="30" as="geometry" />
        </mxCell>
        <mxCell id="vFjxq-ZZOYanFInPDwxO-47" value="&lt;font color=&quot;#000000&quot;&gt;Expose data&lt;br&gt;&lt;/font&gt;" style="text;strokeColor=default;fillColor=none;align=left;verticalAlign=middle;spacingLeft=4;spacingRight=4;overflow=hidden;points=[[0,0.5],[1,0.5]];portConstraint=eastwest;rotatable=0;whiteSpace=wrap;html=1;fontSize=12;fontFamily=Helvetica;fontColor=#FF0000;dashed=1;" parent="vFjxq-ZZOYanFInPDwxO-45" vertex="1">
          <mxGeometry y="60" width="140" height="30" as="geometry" />
        </mxCell>
        <mxCell id="vFjxq-ZZOYanFInPDwxO-49" style="edgeStyle=orthogonalEdgeStyle;curved=1;rounded=0;orthogonalLoop=1;jettySize=auto;html=1;exitX=1;exitY=0.5;exitDx=0;exitDy=0;fontFamily=Helvetica;fontSize=12;fontColor=#000000;" parent="1" source="vFjxq-ZZOYanFInPDwxO-8" target="vFjxq-ZZOYanFInPDwxO-45" edge="1">
          <mxGeometry relative="1" as="geometry" />
        </mxCell>
        <mxCell id="vFjxq-ZZOYanFInPDwxO-51" value="&lt;div&gt;Website&lt;/div&gt;&lt;div&gt;(social media?)&lt;br&gt;&lt;/div&gt;" style="ellipse;whiteSpace=wrap;html=1;strokeColor=#d6b656;fontFamily=Helvetica;fontSize=12;fillColor=#fff2cc;" parent="1" vertex="1">
          <mxGeometry x="960" y="655" width="120" height="80" as="geometry" />
        </mxCell>
        <mxCell id="vFjxq-ZZOYanFInPDwxO-53" style="edgeStyle=orthogonalEdgeStyle;curved=1;rounded=0;orthogonalLoop=1;jettySize=auto;html=1;exitX=1;exitY=0.5;exitDx=0;exitDy=0;entryX=0;entryY=0.5;entryDx=0;entryDy=0;fontFamily=Helvetica;fontSize=12;fontColor=#000000;" parent="1" source="vFjxq-ZZOYanFInPDwxO-44" target="vFjxq-ZZOYanFInPDwxO-51" edge="1">
          <mxGeometry relative="1" as="geometry" />
        </mxCell>
      </root>
    </mxGraphModel>
  </diagram>
</mxfile>
